<svg width="104" height="104" viewBox="0 0 104 104" fill="none" xmlns="http://www.w3.org/2000/svg">
<rect x="93" y="21" width="62" height="82" rx="4" transform="rotate(90 93 21)" stroke="black" stroke-width="2"/>
<rect x="11" y="83" width="30" height="39" rx="4" transform="rotate(-90 11 83)" stroke="#DC143C" stroke-width="2"/>
<path d="M53.2929 48.2929C52.9024 48.6834 52.9024 49.3166 53.2929 49.7071C53.6834 50.0976 54.3166 50.0976 54.7071 49.7071L53.2929 48.2929ZM67 37C67 36.4477 66.5523 36 66 36H57C56.4477 36 56 36.4477 56 37C56 37.5523 56.4477 38 57 38H65V46C65 46.5523 65.4477 47 66 47C66.5523 47 67 46.5523 67 46V37ZM54.7071 49.7071L66.7071 37.7071L65.2929 36.2929L53.2929 48.2929L54.7071 49.7071Z" fill="#DC143C"/>
</svg>
