<svg width="104" height="104" viewBox="0 0 104 104" fill="none" xmlns="http://www.w3.org/2000/svg">
<rect x="103" y="31" width="62" height="82" rx="4" transform="rotate(90 103 31)" stroke="black" stroke-width="2"/>
<rect x="1" y="11" width="62" height="82" rx="4" stroke="#DC143C" stroke-width="2"/>
<path d="M70.7071 11.2929C70.3166 10.9024 69.6834 10.9024 69.2929 11.2929C68.9024 11.6834 68.9024 12.3166 69.2929 12.7071L70.7071 11.2929ZM82 25C82.5523 25 83 24.5523 83 24V15C83 14.4477 82.5523 14 82 14C81.4477 14 81 14.4477 81 15V23H73C72.4477 23 72 23.4477 72 24C72 24.5523 72.4477 25 73 25L82 25ZM69.2929 12.7071L81.2929 24.7071L82.7071 23.2929L70.7071 11.2929L69.2929 12.7071Z" fill="#DC143C"/>
</svg>
