<svg width="104" height="94" viewBox="0 0 104 94" fill="none" xmlns="http://www.w3.org/2000/svg">
<g clip-path="url(#clip0_312_3706)">
<path fill-rule="evenodd" clip-rule="evenodd" d="M104 35L104 89C104 91.7614 101.761 94 99 94L25 94C22.2386 94 20 91.7614 20 89L20 35C20 32.2386 22.2386 30 25 30L99 30C101.761 30 104 32.2386 104 35ZM102 35C102 33.3431 100.657 32 99 32L25 32C23.3431 32 22 33.3431 22 35L22 89C22 90.6568 23.3431 92 25 92L99 92C100.657 92 102 90.6569 102 89L102 35Z" fill="black"/>
<path fill-rule="evenodd" clip-rule="evenodd" d="M5 0H59C61.7614 0 64 2.23858 64 5V79C64 81.7614 61.7614 84 59 84H5C2.23858 84 0 81.7614 0 79V5C0 2.23858 2.23857 0 5 0ZM5 2C3.34315 2 2 3.34315 2 5V79C2 80.6569 3.34315 82 5 82H59C60.6569 82 62 80.6569 62 79V5C62 3.34315 60.6569 2 59 2H5Z" fill="#DC143C"/>
<path fill-rule="evenodd" clip-rule="evenodd" d="M86 12L86 21C86 21.5523 85.5523 22 85 22L76 22C75.4477 22 75 21.5523 75 21C75 20.4477 75.4477 20 76 20L82.5858 20L72.2929 9.70714C71.9024 9.31661 71.9024 8.68345 72.2929 8.29292C72.6834 7.9024 73.3166 7.9024 73.7071 8.29292L84 18.5858L84 12C84 11.4477 84.4477 11 85 11C85.5523 11 86 11.4477 86 12Z" fill="#DC143C"/>
</g>
<defs>
<clipPath id="clip0_312_3706">
<rect width="104" height="94" fill="white"/>
</clipPath>
</defs>
</svg>
