<?xml version="1.0" standalone="no"?>
<!DOCTYPE svg PUBLIC "-//W3C//DTD SVG 20010904//EN"
 "http://www.w3.org/TR/2001/REC-SVG-20010904/DTD/svg10.dtd">
<svg version="1.0" xmlns="http://www.w3.org/2000/svg"
 width="700.000000pt" height="700.000000pt" viewBox="0 0 700.000000 700.000000"
 preserveAspectRatio="xMidYMid meet">
<metadata>
Created by potrace 1.14, written by Peter Selinger 2001-2017
</metadata>
<g transform="translate(0.000000,700.000000) scale(0.100000,-0.100000)"
fill="#000000" stroke="none">
<path d="M3178 4475 c-2 -1 -61 -6 -131 -10 -71 -3 -136 -8 -145 -10 -10 -1
-53 -6 -96 -10 -43 -4 -86 -8 -95 -10 -9 -1 -41 -6 -71 -9 -30 -4 -66 -8 -80
-11 -14 -2 -43 -6 -65 -9 -292 -42 -737 -165 -960 -266 -190 -86 -353 -190
-451 -288 -126 -126 -175 -231 -170 -367 2 -69 7 -91 41 -160 59 -123 218
-274 385 -363 131 -71 173 -91 255 -125 139 -57 375 -131 515 -162 238 -53
427 -87 554 -101 33 -3 69 -8 80 -10 12 -2 55 -7 96 -10 41 -3 86 -7 99 -9
156 -26 936 -25 1126 0 17 2 64 7 105 10 41 3 107 10 145 16 39 5 88 12 110
14 22 3 51 8 65 10 14 3 41 7 60 10 80 12 253 49 365 76 638 159 1062 416
1155 703 92 280 -155 570 -662 780 -146 60 -434 150 -544 170 -16 3 -44 10
-62 15 -18 5 -35 10 -37 10 -3 0 -18 2 -33 5 -15 3 -38 8 -52 10 -14 3 -48 9
-77 15 -42 8 -185 29 -388 56 -16 2 -70 7 -120 10 -49 4 -106 8 -125 10 -19 2
-101 6 -182 10 l-148 7 0 -71 0 -71 48 -1 c26 0 72 -2 102 -4 30 -2 102 -6
160 -10 58 -4 119 -8 135 -10 17 -2 62 -7 100 -10 39 -3 81 -8 95 -10 280 -38
425 -65 640 -120 349 -88 640 -214 820 -355 294 -229 273 -455 -64 -683 -75
-51 -322 -177 -347 -177 -8 0 -19 -4 -25 -9 -34 -32 -530 -169 -709 -195 -22
-4 -65 -11 -95 -16 -79 -14 -264 -38 -345 -46 -38 -3 -83 -8 -100 -10 -234
-29 -889 -24 -1215 11 -144 15 -257 31 -375 51 -49 9 -103 18 -120 21 -59 9
-352 82 -447 112 -543 168 -876 427 -845 655 24 170 254 363 602 503 130 53
324 115 470 151 127 32 413 85 521 98 27 3 60 7 74 9 22 3 69 8 195 21 17 2
84 6 150 10 65 3 126 7 135 9 23 3 22 137 -2 141 -9 1 -18 1 -20 -1z"/>
</g>
</svg>
