<?xml version="1.0" standalone="no"?>
<!DOCTYPE svg PUBLIC "-//W3C//DTD SVG 20010904//EN"
 "http://www.w3.org/TR/2001/REC-SVG-20010904/DTD/svg10.dtd">
<svg version="1.0" xmlns="http://www.w3.org/2000/svg"
 width="700.000000pt" height="700.000000pt" viewBox="0 0 700.000000 700.000000"
 preserveAspectRatio="xMidYMid meet">
<metadata>
Created by potrace 1.14, written by Peter Selinger 2001-2017
</metadata>
<g transform="translate(0.000000,700.000000) scale(0.100000,-0.100000)"
fill="#000000" stroke="none">
<path d="M3145 6604 c-22 -2 -96 -8 -165 -14 -330 -28 -682 -95 -942 -180
-355 -116 -588 -272 -672 -450 l-31 -65 0 -2395 0 -2395 31 -65 c146 -308 696
-529 1559 -626 190 -22 807 -30 1031 -15 923 65 1591 310 1748 641 l31 65 0
2395 0 2395 -31 65 c-61 129 -183 234 -387 335 -220 109 -551 204 -887 254
-308 46 -413 53 -835 56 -225 1 -428 1 -450 -1z m995 -228 c581 -66 1024 -196
1253 -370 115 -86 154 -167 122 -251 -70 -185 -483 -368 -1050 -465 -331 -56
-458 -65 -935 -65 -467 1 -576 8 -900 61 -557 91 -976 269 -1071 455 -61 121
42 249 301 373 299 144 695 230 1280 280 25 2 227 2 450 1 295 -2 444 -7 550
-19z m-2366 -1062 c174 -83 490 -180 704 -215 l72 -12 0 -2204 0 -2205 -32 7
c-314 64 -502 123 -688 216 -143 70 -228 141 -271 221 -19 37 -19 77 -19 2183
l0 2146 61 -42 c34 -23 111 -65 173 -95z m3740 -4182 c-68 -182 -485 -365
-1049 -462 -329 -56 -458 -65 -930 -65 -415 0 -484 4 -747 37 l-88 11 0 2204
0 2205 43 -6 c274 -40 891 -59 1213 -37 426 30 825 103 1124 206 122 42 323
137 395 188 l50 34 3 -2136 c2 -1941 1 -2140 -14 -2179z"/>
</g>
</svg>
