<?xml version="1.0" standalone="no"?>
<!DOCTYPE svg PUBLIC "-//W3C//DTD SVG 20010904//EN"
 "http://www.w3.org/TR/2001/REC-SVG-20010904/DTD/svg10.dtd">
<svg version="1.0" xmlns="http://www.w3.org/2000/svg"
 width="700.000000pt" height="700.000000pt" viewBox="0 0 700.000000 700.000000"
 preserveAspectRatio="xMidYMid meet">
<metadata>
Created by potrace 1.14, written by Peter Selinger 2001-2017
</metadata>
<g transform="translate(0.000000,700.000000) scale(0.100000,-0.100000)"
fill="#000000" stroke="none">
<path d="M3179 6505 c-2 -2 -51 -6 -109 -10 -58 -3 -116 -8 -130 -10 -14 -2
-56 -6 -95 -10 -38 -3 -81 -8 -95 -10 -14 -2 -45 -7 -70 -10 -57 -8 -107 -16
-134 -21 -11 -2 -41 -7 -66 -10 -25 -3 -48 -8 -51 -10 -3 -2 -21 -6 -40 -9
-128 -22 -370 -91 -508 -145 -140 -55 -249 -113 -341 -181 -91 -67 -138 -122
-179 -209 l-31 -65 0 -2300 c0 -2136 1 -2303 17 -2345 63 -169 243 -309 543
-424 81 -31 231 -79 280 -91 8 -2 35 -8 60 -14 88 -22 113 -28 235 -50 103
-20 138 -25 215 -36 25 -3 56 -8 70 -10 14 -2 57 -7 95 -11 39 -3 78 -8 87
-10 138 -25 916 -25 1123 1 17 2 64 7 105 10 41 4 84 9 95 11 11 2 39 6 63 9
94 11 291 47 408 75 485 115 803 289 909 496 l30 59 3 2313 2 2313 -33 72
c-121 261 -587 475 -1252 572 -22 4 -51 8 -65 10 -86 13 -172 22 -275 31 -44
3 -96 8 -115 11 -42 5 -746 13 -751 8z m251 -766 l0 -631 -157 7 c-87 3 -174
8 -193 10 -19 2 -73 6 -120 10 -47 3 -114 10 -150 15 -36 5 -89 12 -119 15
-30 4 -63 9 -75 11 -12 2 -37 7 -56 10 -19 3 -66 12 -105 19 -38 8 -83 16
-100 20 -27 5 -55 12 -228 59 -152 42 -342 123 -451 193 -176 114 -239 232
-184 346 91 186 501 373 1008 460 79 14 96 17 119 22 13 2 49 7 80 10 31 4 63
8 71 10 8 2 47 7 85 11 39 3 78 8 88 10 9 1 74 6 145 10 70 3 128 7 129 8 1 0
49 2 107 4 l106 2 0 -631z m505 616 c22 -2 74 -6 115 -10 41 -3 89 -8 105 -10
17 -3 48 -7 70 -9 82 -9 290 -44 420 -70 249 -50 537 -159 691 -262 94 -62
148 -117 175 -181 36 -84 16 -155 -68 -241 -113 -117 -340 -226 -636 -307 -96
-26 -113 -30 -171 -41 -16 -2 -32 -6 -35 -8 -3 -2 -24 -7 -46 -10 -22 -4 -89
-15 -150 -26 -60 -10 -144 -22 -185 -26 -41 -3 -77 -8 -80 -9 -3 -2 -44 -6
-90 -10 -47 -4 -103 -8 -125 -11 -22 -2 -127 -6 -232 -10 l-193 -6 0 632 0
633 198 -7 c108 -4 215 -9 237 -11z m-2438 -919 c12 -20 137 -103 214 -142
156 -78 414 -165 606 -204 109 -22 251 -49 293 -54 25 -4 56 -9 70 -11 44 -8
94 -14 165 -20 38 -4 77 -8 86 -10 136 -26 922 -26 1124 0 17 2 64 7 105 10
41 4 84 9 95 11 11 2 40 6 64 9 152 18 384 66 561 116 270 76 466 168 623 289
l27 22 -2 -2124 -3 -2123 -28 -47 c-90 -151 -365 -291 -764 -391 -131 -33
-385 -79 -503 -92 -30 -3 -71 -8 -90 -10 -183 -24 -317 -30 -645 -30 -268 1
-464 7 -555 20 -14 2 -54 6 -90 10 -71 7 -94 10 -158 20 -23 4 -52 8 -65 10
-27 3 -144 23 -172 29 -535 110 -892 282 -970 469 -13 32 -15 280 -15 2147 0
1326 4 2110 10 2110 5 0 13 -6 17 -14z"/>
</g>
</svg>
